<svg version="1.1" id="Layer_1" xmlns="http://www.w3.org/2000/svg" xmlns:xlink="http://www.w3.org/1999/xlink" x="0px" y="0px"
	 width="100%" viewBox="0 0 500 500" enable-background="new 0 0 500 500" xml:space="preserve">
<path fill="#000000" opacity="1.000000" stroke="none" 
	d="
M282.000000,501.000000 
	C188.000015,501.000000 94.500046,501.000000 1.000050,501.000000 
	C1.000033,334.333405 1.000033,167.666794 1.000017,1.000140 
	C167.666565,1.000093 334.333130,1.000093 500.999756,1.000046 
	C500.999847,167.666519 500.999847,334.333038 500.999939,500.999786 
	C428.166656,501.000000 355.333344,501.000000 282.000000,501.000000 
M361.834961,276.106659 
	C361.834961,276.106659 361.825104,276.321320 361.825104,276.321320 
	C361.825104,276.321320 361.959564,275.973846 362.137726,275.936798 
	C362.137726,275.936798 362.187683,275.745636 362.187683,275.745636 
	C362.187683,275.745636 362.018921,276.036560 361.834961,276.106659 
M183.257584,215.737305 
	C181.017471,216.169403 177.751434,215.340210 177.948288,219.084473 
	C178.008820,220.235764 179.790298,221.296585 180.783752,222.398834 
	C181.917755,220.973312 183.051743,219.547775 184.412506,217.492599 
	C190.031097,211.654114 195.649689,205.815628 202.128433,199.691406 
	C226.779526,199.622574 251.430557,199.523315 276.081696,199.491470 
	C322.060455,199.432068 368.039276,199.411896 414.639648,199.584763 
	C415.457184,199.692184 416.274750,199.799622 417.239044,200.685028 
	C428.399994,200.685028 439.560974,200.685028 450.873016,200.685028 
	C450.873016,199.378555 450.873016,197.755127 450.873016,195.719147 
	C440.247406,195.719147 429.796387,195.669632 419.348297,195.821518 
	C418.585480,195.832611 417.843842,197.302704 416.369385,198.508896 
	C415.565735,198.357498 414.762054,198.206085 413.027283,198.008896 
	C343.872528,198.006180 274.717773,197.997635 205.563019,198.033768 
	C203.794464,198.034683 202.026154,198.526108 199.690872,199.026962 
	C194.458191,204.488403 189.225525,209.949844 183.257584,215.737305 
M239.702637,204.369553 
	C244.962830,204.914154 250.217590,205.533142 255.489365,205.919632 
	C256.241913,205.974808 257.077026,204.904266 257.873932,204.354706 
	C257.023346,203.851288 256.179138,202.926056 255.321167,202.913132 
	C249.883728,202.831207 244.443222,202.951065 238.096298,202.742661 
	C227.307098,202.742661 216.517914,202.742661 205.728714,202.742661 
	C205.733505,203.143829 205.738297,203.545013 205.743103,203.946182 
	C216.843262,203.946182 227.943420,203.946182 239.702637,204.369553 
M253.483032,287.053223 
	C253.711548,286.980164 253.940063,286.907104 254.839386,287.345856 
	C262.156952,287.345856 269.474518,287.345856 277.228760,287.345856 
	C271.554138,283.722473 266.280609,280.355194 261.011200,276.435059 
	C261.045959,276.070404 261.080719,275.705750 262.036285,275.280823 
	C294.134827,275.280823 326.233368,275.280823 358.331909,275.280823 
	C358.329529,274.963867 358.327179,274.646942 358.324829,274.329987 
	C300.781860,274.329987 243.238876,274.329987 185.695892,274.329987 
	C185.682037,274.569397 185.668167,274.808777 185.654312,275.048187 
	C186.730820,275.145630 187.807327,275.243073 188.982285,275.836273 
	C189.491791,276.221161 190.001282,276.606049 190.817856,277.649414 
	C194.701797,280.127441 198.572128,282.627106 202.472519,285.078979 
	C210.577774,290.174103 219.240707,288.162201 228.580215,287.112457 
	C229.079346,287.054962 229.578461,286.997467 230.829941,287.307556 
	C238.141190,287.214874 245.452423,287.122162 253.483032,287.053223 
M441.146210,288.695526 
	C442.877075,288.783875 444.607941,288.872253 446.338776,288.960602 
	C446.401855,287.566193 447.049072,285.575012 446.384216,284.924194 
	C445.497192,284.055908 443.568481,283.953674 442.131348,284.069702 
	C441.399170,284.128815 440.763519,285.383575 439.148895,285.931122 
	C418.235199,285.931122 397.321472,285.931122 376.407776,285.931122 
	C378.311676,287.277039 380.414124,287.840393 382.520874,287.856995 
	C401.961945,288.010284 421.403778,288.069092 441.146210,288.695526 
M120.854965,307.992065 
	C122.815880,307.679565 124.771973,307.332306 126.738426,307.059753 
	C159.022797,302.585297 181.196869,270.496796 173.762848,238.351395 
	C167.679901,215.980698 153.843704,201.461548 130.515244,195.853500 
	C130.013138,195.777222 129.511032,195.700928 128.337952,195.201889 
	C127.553070,195.155426 126.768196,195.108978 125.432892,194.845978 
	C124.292755,194.907913 123.152618,194.969833 121.123970,194.975693 
	C118.749390,194.989838 116.374802,195.003967 113.392700,194.660706 
	C99.237434,195.843689 87.302574,201.688980 77.374825,211.777542 
	C60.758419,228.663101 56.502815,257.150574 67.851318,276.832397 
	C76.169128,292.307159 88.500244,302.533142 106.454102,306.280762 
	C106.971001,306.387817 107.487900,306.494873 108.638252,306.901062 
	C109.102325,306.901672 109.566391,306.902283 110.777046,307.121643 
	C112.850273,307.371887 114.923508,307.622162 117.742302,308.009796 
	C118.496071,307.963470 119.249840,307.917145 120.854965,307.992065 
M280.471313,248.933655 
	C277.049316,248.933655 273.627319,248.933655 269.814362,248.933655 
	C269.814362,246.380371 269.816101,244.574295 269.814026,242.768204 
	C269.808746,238.111633 269.920288,233.449341 269.695953,228.803299 
	C269.650848,227.869522 268.326965,226.997498 267.592712,226.097000 
	C267.018127,226.951050 265.959564,227.796768 265.944702,228.660431 
	C265.813934,236.262650 265.868958,243.868073 265.868958,251.768036 
	C272.852325,251.768036 279.212097,251.768036 285.787811,251.768036 
	C288.072357,244.998383 290.376343,238.171097 293.145203,229.966248 
	C295.658234,237.451813 297.597107,243.526321 299.799377,249.503769 
	C300.183167,250.545441 301.677063,251.178101 302.658234,251.999680 
	C302.887421,250.744461 303.593964,249.345978 303.267273,248.257629 
	C301.360321,241.904770 299.379974,235.560181 297.016846,229.368362 
	C296.473663,227.945145 294.397583,226.397369 292.910156,226.269882 
	C291.731537,226.168839 289.794312,227.902328 289.208160,229.259338 
	C287.635956,232.898941 286.732208,236.820648 285.324677,240.540146 
	C284.206116,243.495972 282.735870,246.318726 280.471313,248.933655 
M318.963654,237.077515 
	C317.466766,237.067657 315.959076,236.938690 314.475281,237.073135 
	C311.535645,237.339493 310.789764,235.896042 310.798492,233.215912 
	C310.806763,230.674759 311.695038,229.502762 314.273712,229.618607 
	C316.064301,229.699066 317.861481,229.634094 319.477753,229.634094 
	C319.895172,230.656540 319.992065,231.172699 320.278168,231.542450 
	C321.140198,232.656494 322.075806,233.713593 322.982727,234.792908 
	C323.388062,233.326828 324.265747,231.789505 324.058563,230.415756 
	C323.871735,229.176682 322.576355,227.216705 321.633026,227.133957 
	C317.610596,226.781006 313.508850,226.751633 309.502930,227.200638 
	C308.506958,227.312271 307.232910,229.562454 306.988861,230.984482 
	C305.759735,238.146240 307.698151,240.273132 315.061829,240.459839 
	C317.443939,240.520218 320.672302,239.785355 320.267731,243.753418 
	C320.091675,245.480362 318.746094,248.381607 317.729889,248.471664 
	C315.292297,248.687668 311.429169,250.661118 310.744690,245.618515 
	C310.622223,244.716278 309.221619,243.987549 308.411194,243.178696 
	C307.895599,244.244415 307.022430,245.280350 306.930756,246.381378 
	C306.643707,249.828278 308.632721,251.608368 311.883728,251.992508 
	C313.525269,252.186432 315.206268,252.037491 316.869141,252.061371 
	C320.167236,252.108734 323.673828,251.962677 324.104370,247.797195 
	C324.527710,243.701630 325.873413,238.806076 318.963654,237.077515 
M364.938629,245.612473 
	C366.501587,240.828094 368.064514,236.043716 369.627472,231.259338 
	C372.677277,237.479340 374.619965,243.579071 376.831146,249.579865 
	C377.205780,250.596497 378.735168,251.187622 379.731049,251.975327 
	C379.990112,250.859940 380.721313,249.600525 380.432129,248.652359 
	C378.451111,242.157166 376.422211,235.663834 374.001953,229.325195 
	C373.462372,227.912003 371.360321,226.382278 369.874512,226.269913 
	C368.693848,226.180664 366.721069,227.928604 366.199860,229.283844 
	C364.180817,234.533691 362.448242,239.909897 360.936554,245.330399 
	C360.354065,247.419006 360.646240,249.751511 360.539886,251.972900 
	C364.686127,252.148895 363.216095,248.159637 364.938629,245.612473 
M251.862976,247.184326 
	C251.862976,241.431686 251.862976,235.679047 251.862976,229.609467 
	C254.943542,229.609467 257.422150,229.727798 259.877045,229.538620 
	C260.631348,229.480499 261.320770,228.581131 262.039917,228.066971 
	C261.292603,227.414474 260.590393,226.272980 259.789734,226.199173 
	C257.161194,225.956818 254.490158,226.219360 251.848129,226.067429 
	C248.840256,225.894470 247.734222,227.105988 247.820633,230.132645 
	C247.990768,236.091629 247.771790,242.061798 247.944946,248.020615 
	C247.984467,249.380539 248.963257,250.713196 249.509766,252.058426 
	C250.293686,250.737991 251.077621,249.417557 251.862976,247.184326 
M329.193726,247.178253 
	C329.840454,248.809097 330.487183,250.439941 331.133911,252.070801 
	C331.816803,250.524246 333.018341,249.000854 333.088654,247.426910 
	C333.332458,241.970627 333.323914,236.490967 333.098999,231.033081 
	C333.030060,229.360428 331.957764,227.729126 331.344940,226.078903 
	C330.627747,227.663925 329.376648,229.221069 329.292145,230.839127 
	C329.024658,235.960983 329.193268,241.105621 329.193726,247.178253 
M343.013550,228.997986 
	C343.014954,235.777451 342.939423,242.558838 343.108551,249.334122 
	C343.131409,250.250717 344.382294,251.136673 345.064545,252.036819 
	C345.698151,251.252045 346.866058,250.477798 346.881744,249.680847 
	C347.021790,242.573654 347.005707,235.461670 346.885254,228.353607 
	C346.872559,227.604660 345.892853,226.872086 345.361755,226.131927 
	C344.588226,226.790100 343.814697,227.448273 343.013550,228.997986 
M387.923401,232.695160 
	C387.923187,231.862122 388.124969,230.963089 387.879089,230.210297 
	C387.420898,228.807526 386.702209,227.489853 386.091919,226.136780 
	C385.382416,227.529160 384.112183,228.901047 384.060425,230.317474 
	C383.835388,236.473740 383.868286,242.645981 384.056671,248.804779 
	C384.090179,249.899231 385.305878,250.957520 385.975647,252.032532 
	C386.623566,250.904160 387.782806,249.797104 387.830872,248.643723 
	C388.038910,243.654068 387.922058,238.650864 387.923401,232.695160 
M185.481430,249.430252 
	C184.267731,248.231644 183.192642,246.772385 181.749588,246.005066 
	C181.354980,245.795258 179.215866,247.555817 179.040985,248.605927 
	C178.860275,249.691010 180.241898,252.095169 180.685486,252.035309 
	C182.293304,251.818405 183.794266,250.809418 185.481430,249.430252 
M122.913506,312.616608 
	C121.163948,312.570404 119.351723,312.268250 117.711784,312.669739 
	C117.332886,312.762512 117.081543,315.499023 117.633606,316.577728 
	C118.050812,317.392944 120.602638,318.150208 120.885483,317.816254 
	C121.968575,316.537384 122.518944,314.807373 122.913506,312.616608 
M57.904041,253.265182 
	C56.724503,251.990295 55.695637,250.462662 54.264656,249.609543 
	C53.883762,249.382462 51.640614,251.082504 51.400799,252.154617 
	C51.164925,253.209091 52.446899,255.658035 52.958904,255.629501 
	C54.574287,255.539520 56.140919,254.574478 57.904041,253.265182 
M119.621674,185.967072 
	C117.970123,185.511459 116.304008,184.724548 114.675621,184.796127 
	C114.167419,184.818451 113.141739,187.366943 113.481178,188.381607 
	C113.825417,189.410614 116.158379,190.860428 116.582626,190.576340 
	C117.947670,189.662231 118.833817,188.032990 119.621674,185.967072 
M360.377106,274.533203 
	C360.377106,274.533203 360.554840,274.649841 360.554840,274.649841 
	C360.554840,274.649841 360.540009,274.421783 360.377106,274.533203 
z"/>
<path fill="#16C1E3" opacity="1.000000" stroke="none" 
	d="
M130.970123,196.094315 
	C153.843704,201.461548 167.679901,215.980698 173.596664,238.971466 
	C173.401505,242.358032 172.537277,243.725647 169.581375,242.078354 
	C168.615921,241.540298 167.458435,241.346786 166.231628,240.635773 
	C162.924591,233.755188 160.689560,226.553238 156.442337,220.849762 
	C146.277054,207.199158 131.645554,202.087967 114.946487,201.682144 
	C114.592590,199.237473 114.296410,197.127792 114.000221,195.018112 
	C116.374802,195.003967 118.749390,194.989838 121.809723,195.211395 
	C123.658096,195.318909 124.820702,195.190704 125.983315,195.062515 
	C126.768196,195.108978 127.553070,195.155426 128.770538,195.613312 
	C129.792130,196.047943 130.381134,196.071121 130.970123,196.094315 
z"/>
<path fill="#16C2E4" opacity="1.000000" stroke="none" 
	d="
M105.998909,306.000854 
	C88.500244,302.533142 76.169128,292.307159 68.032021,276.239258 
	C67.926559,274.605042 67.637833,273.564697 67.354691,272.522827 
	C66.041321,267.690155 63.014000,263.119965 65.454056,257.815857 
	C66.540604,257.896118 67.266205,257.927826 68.069618,258.267456 
	C68.785660,259.053772 69.423904,259.532166 70.258102,260.328064 
	C76.581726,285.588409 95.574173,300.265106 121.439064,299.692230 
	C124.953171,299.614380 125.381104,300.977966 124.925316,303.951538 
	C123.138313,305.442200 121.570961,306.656525 120.003616,307.870819 
	C119.249840,307.917145 118.496071,307.963470 117.232727,307.613068 
	C114.492249,307.111847 112.261360,307.007385 110.030464,306.902893 
	C109.566391,306.902283 109.102325,306.901672 108.238853,306.526733 
	C107.225937,306.101868 106.612427,306.051361 105.998909,306.000854 
z"/>
<path fill="#37C5D9" opacity="1.000000" stroke="none" 
	d="
M280.946533,249.067108 
	C282.735870,246.318726 284.206116,243.495972 285.324677,240.540146 
	C286.732208,236.820648 287.635956,232.898941 289.208160,229.259338 
	C289.794312,227.902328 291.731537,226.168839 292.910156,226.269882 
	C294.397583,226.397369 296.473663,227.945145 297.016846,229.368362 
	C299.379974,235.560181 301.360321,241.904770 303.267273,248.257629 
	C303.593964,249.345978 302.887421,250.744461 302.658234,251.999680 
	C301.677063,251.178101 300.183167,250.545441 299.799377,249.503769 
	C297.597107,243.526321 295.658234,237.451813 293.145203,229.966248 
	C290.376343,238.171097 288.072357,244.998383 285.787811,251.768036 
	C279.212097,251.768036 272.852325,251.768036 265.868958,251.768036 
	C265.868958,243.868073 265.813934,236.262650 265.944702,228.660431 
	C265.959564,227.796768 267.018127,226.951050 267.592712,226.097000 
	C268.326965,226.997498 269.650848,227.869522 269.695953,228.803299 
	C269.920288,233.449341 269.808746,238.111633 269.814026,242.768204 
	C269.816101,244.574295 269.814362,246.380371 269.814362,248.933655 
	C273.627319,248.933655 277.049316,248.933655 280.946533,249.067108 
z"/>
<path fill="#15D0E4" opacity="1.000000" stroke="none" 
	d="
M65.093117,257.767303 
	C63.014000,263.119965 66.041321,267.690155 67.354691,272.522827 
	C67.637833,273.564697 67.926559,274.605042 67.995956,275.878754 
	C56.502815,257.150574 60.758419,228.663101 77.374825,211.777542 
	C87.302574,201.688980 99.237434,195.843689 113.696457,194.839417 
	C114.296410,197.127792 114.592590,199.237473 114.635887,201.804428 
	C112.907875,201.034378 111.432762,199.807037 109.476555,198.179428 
	C88.008636,202.782990 72.895958,215.375916 66.632286,237.577820 
	C64.783722,244.130173 62.206650,250.784653 65.093117,257.767303 
z"/>
<path fill="#15CCE0" opacity="1.000000" stroke="none" 
	d="
M120.429291,307.931458 
	C121.570961,306.656525 123.138313,305.442200 125.304893,304.029999 
	C157.671753,299.393982 175.607101,269.079926 170.302200,245.360245 
	C168.997726,243.905396 167.693253,242.450546 166.388779,240.995712 
	C167.458435,241.346786 168.615921,241.540298 169.581375,242.078354 
	C172.537277,243.725647 173.401505,242.358032 173.556274,239.353394 
	C181.196869,270.496796 159.022797,302.585297 126.738426,307.059753 
	C124.771973,307.332306 122.815880,307.679565 120.429291,307.931458 
z"/>
<path fill="#37C3D7" opacity="1.000000" stroke="none" 
	d="
M319.381104,237.121490 
	C325.873413,238.806076 324.527710,243.701630 324.104370,247.797195 
	C323.673828,251.962677 320.167236,252.108734 316.869141,252.061371 
	C315.206268,252.037491 313.525269,252.186432 311.883728,251.992508 
	C308.632721,251.608368 306.643707,249.828278 306.930756,246.381378 
	C307.022430,245.280350 307.895599,244.244415 308.411194,243.178711 
	C309.221619,243.987549 310.622223,244.716278 310.744690,245.618515 
	C311.429169,250.661118 315.292297,248.687668 317.729889,248.471664 
	C318.746094,248.381607 320.091675,245.480362 320.267731,243.753418 
	C320.672302,239.785355 317.443939,240.520218 315.061829,240.459839 
	C307.698151,240.273132 305.759735,238.146240 306.988861,230.984482 
	C307.232910,229.562454 308.506958,227.312271 309.502930,227.200638 
	C313.508850,226.751633 317.610596,226.781006 321.633026,227.133957 
	C322.576355,227.216705 323.871735,229.176682 324.058563,230.415756 
	C324.265747,231.789505 323.388062,233.326828 322.982727,234.792908 
	C322.075806,233.713593 321.140198,232.656494 320.278168,231.542450 
	C319.992065,231.172699 319.895172,230.656540 319.477753,229.634094 
	C317.861481,229.634094 316.064301,229.699066 314.273712,229.618607 
	C311.695038,229.502762 310.806763,230.674759 310.798492,233.215912 
	C310.789764,235.896042 311.535645,237.339493 314.475281,237.073135 
	C315.959076,236.938690 317.466766,237.067657 319.381104,237.121490 
z"/>
<path fill="#37C5D9" opacity="1.000000" stroke="none" 
	d="
M364.819885,245.987228 
	C363.216095,248.159637 364.686127,252.148895 360.539886,251.972900 
	C360.646240,249.751511 360.354065,247.419006 360.936554,245.330399 
	C362.448242,239.909897 364.180817,234.533691 366.199860,229.283844 
	C366.721069,227.928604 368.693848,226.180664 369.874512,226.269913 
	C371.360321,226.382278 373.462372,227.912003 374.001953,229.325195 
	C376.422211,235.663834 378.451111,242.157166 380.432129,248.652359 
	C380.721313,249.600525 379.990112,250.859940 379.731049,251.975342 
	C378.735168,251.187622 377.205780,250.596497 376.831146,249.579865 
	C374.619965,243.579071 372.677277,237.479340 369.627472,231.259338 
	C368.064514,236.043716 366.501587,240.828094 364.819885,245.987228 
z"/>
<path fill="#15C3DD" opacity="1.000000" stroke="none" 
	d="
M417.092407,198.094482 
	C417.843842,197.302704 418.585480,195.832611 419.348297,195.821518 
	C429.796387,195.669632 440.247406,195.719147 450.873016,195.719147 
	C450.873016,197.755127 450.873016,199.378555 450.873016,200.685028 
	C439.560974,200.685028 428.399994,200.685028 417.265137,199.999359 
	C417.224945,198.907272 417.158661,198.500870 417.092407,198.094482 
z"/>
<path fill="#14C4D7" opacity="1.000000" stroke="none" 
	d="
M414.018066,199.375397 
	C368.039276,199.411896 322.060455,199.432068 276.081696,199.491470 
	C251.430557,199.523315 226.779526,199.622574 201.386688,199.587387 
	C200.515869,199.251831 200.386810,199.020294 200.257736,198.788773 
	C202.026154,198.526108 203.794464,198.034683 205.563019,198.033768 
	C274.717773,197.997635 343.872528,198.006180 413.535187,198.360733 
	C414.034760,198.933502 414.026398,199.154449 414.018066,199.375397 
z"/>
<path fill="#074A52" opacity="1.000000" stroke="none" 
	d="
M230.077591,286.939972 
	C229.578461,286.997467 229.079346,287.054962 227.873871,287.040833 
	C225.433594,285.986053 223.699646,285.002899 221.748459,283.759338 
	C215.387604,279.111176 209.160049,274.992340 200.530167,277.028687 
	C196.882019,276.976166 193.696396,276.983551 190.510788,276.990936 
	C190.001282,276.606049 189.491791,276.221161 189.392639,275.454773 
	C201.278915,275.045837 212.755096,274.961517 224.230743,275.006470 
	C236.525909,275.054596 248.820587,275.224396 261.115479,275.341095 
	C261.080719,275.705750 261.045959,276.070404 260.633545,276.727600 
	C259.507385,277.044464 258.758820,277.068756 257.595612,277.022095 
	C255.783340,276.999786 254.385757,277.048462 252.532471,277.038666 
	C248.405792,276.980225 244.734802,276.980225 240.951279,276.980225 
	C241.421753,278.181152 241.762909,279.051971 241.720337,279.994904 
	C233.639587,273.939545 224.936340,278.234833 216.791992,276.741089 
	C216.694382,277.164185 216.596771,277.587280 216.499176,278.010376 
	C220.969101,280.721375 225.439026,283.432373 229.962448,286.340149 
	C230.015945,286.536896 230.077591,286.939972 230.077591,286.939972 
z"/>
<path fill="#15D0E4" opacity="1.000000" stroke="none" 
	d="
M261.575867,275.310974 
	C248.820587,275.224396 236.525909,275.054596 224.230743,275.006470 
	C212.755096,274.961517 201.278915,275.045837 189.343414,275.206879 
	C187.807327,275.243073 186.730820,275.145630 185.654312,275.048187 
	C185.668167,274.808777 185.682037,274.569397 185.695892,274.329987 
	C243.238876,274.329987 300.781860,274.329987 358.324829,274.329987 
	C358.327179,274.646942 358.329529,274.963867 358.331909,275.280823 
	C326.233368,275.280823 294.134827,275.280823 261.575867,275.310974 
z"/>
<path fill="#36C0D3" opacity="1.000000" stroke="none" 
	d="
M251.862259,247.640717 
	C251.077621,249.417557 250.293686,250.737991 249.509766,252.058411 
	C248.963257,250.713196 247.984467,249.380539 247.944946,248.020615 
	C247.771790,242.061798 247.990768,236.091629 247.820633,230.132645 
	C247.734222,227.105988 248.840256,225.894470 251.848129,226.067429 
	C254.490158,226.219360 257.161194,225.956818 259.789734,226.199173 
	C260.590393,226.272980 261.292603,227.414474 262.039917,228.066971 
	C261.320770,228.581131 260.631348,229.480499 259.877045,229.538620 
	C257.422150,229.727798 254.943542,229.609467 251.862976,229.609467 
	C251.862976,235.679047 251.862976,241.431686 251.862259,247.640717 
z"/>
<path fill="#0C7883" opacity="1.000000" stroke="none" 
	d="
M440.845337,288.155365 
	C421.403778,288.069092 401.961945,288.010284 382.520874,287.856995 
	C380.414124,287.840393 378.311676,287.277039 376.407776,285.931122 
	C397.321472,285.931122 418.235199,285.931122 439.749084,286.258820 
	C440.514618,287.109467 440.679993,287.632416 440.845337,288.155365 
z"/>
<path fill="#37C3D7" opacity="1.000000" stroke="none" 
	d="
M329.193481,246.709839 
	C329.193268,241.105621 329.024658,235.960983 329.292145,230.839127 
	C329.376648,229.221069 330.627747,227.663925 331.344940,226.078903 
	C331.957764,227.729126 333.030060,229.360428 333.098999,231.033081 
	C333.323914,236.490967 333.332458,241.970627 333.088654,247.426910 
	C333.018341,249.000854 331.816803,250.524246 331.133911,252.070801 
	C330.487183,250.439941 329.840454,248.809097 329.193481,246.709839 
z"/>
<path fill="#16CCE9" opacity="1.000000" stroke="none" 
	d="
M221.965714,284.019714 
	C223.699646,285.002899 225.433594,285.986053 227.499298,286.996429 
	C219.240707,288.162201 210.577774,290.174103 202.472519,285.078979 
	C198.572128,282.627106 194.701797,280.127441 190.664322,277.320190 
	C193.696396,276.983551 196.882019,276.976166 200.536926,277.416748 
	C201.912766,279.656403 202.363205,282.065979 203.806091,283.130890 
	C209.532532,287.357391 215.749374,286.948364 221.965714,284.019714 
z"/>
<path fill="#39CDE1" opacity="1.000000" stroke="none" 
	d="
M343.027344,228.552216 
	C343.814697,227.448273 344.588226,226.790100 345.361755,226.131927 
	C345.892853,226.872086 346.872559,227.604660 346.885254,228.353607 
	C347.005707,235.461670 347.021790,242.573654 346.881744,249.680847 
	C346.866058,250.477798 345.698151,251.252045 345.064545,252.036819 
	C344.382294,251.136673 343.131409,250.250717 343.108551,249.334122 
	C342.939423,242.558838 343.014954,235.777451 343.027344,228.552216 
z"/>
<path fill="#39CDE1" opacity="1.000000" stroke="none" 
	d="
M387.923401,233.173874 
	C387.922058,238.650864 388.038910,243.654068 387.830872,248.643723 
	C387.782806,249.797104 386.623566,250.904160 385.975647,252.032532 
	C385.305878,250.957520 384.090179,249.899231 384.056671,248.804779 
	C383.868286,242.645981 383.835388,236.473740 384.060425,230.317474 
	C384.112183,228.901047 385.382416,227.529160 386.091919,226.136780 
	C386.702209,227.489853 387.420898,228.807526 387.879089,230.210297 
	C388.124969,230.963089 387.923187,231.862122 387.923401,233.173874 
z"/>
<path fill="#16CCE9" opacity="1.000000" stroke="none" 
	d="
M258.010284,277.093079 
	C258.758820,277.068756 259.507385,277.044464 260.631531,277.004059 
	C266.280609,280.355194 271.554138,283.722473 277.228760,287.345856 
	C269.474518,287.345856 262.156952,287.345856 254.403107,286.815643 
	C253.538696,285.894257 253.110565,285.503082 253.137238,285.087219 
	C256.544586,285.355774 259.497009,285.838348 262.449768,285.840363 
	C263.495636,285.841064 264.542297,284.670715 265.588593,284.034973 
	C265.016937,283.120972 264.624481,281.991882 263.837616,281.336090 
	C261.995728,279.801056 259.964722,278.493011 258.010284,277.093079 
z"/>
<path fill="#16CCE9" opacity="1.000000" stroke="none" 
	d="
M230.453766,287.123779 
	C230.077591,286.939972 230.015945,286.536896 230.248398,286.097473 
	C233.537384,285.769012 236.643921,286.254181 239.632248,285.854797 
	C241.513062,285.603424 243.216782,284.026978 245.356842,283.145081 
	C247.468704,283.845520 249.223709,284.445862 250.989319,285.057098 
	C250.999924,285.068024 250.994278,285.108856 250.702484,285.342407 
	C251.195007,286.060486 251.979340,286.544952 252.763672,287.029449 
	C245.452423,287.122162 238.141190,287.214874 230.453766,287.123779 
z"/>
<path fill="#17DDF2" opacity="1.000000" stroke="none" 
	d="
M239.003738,203.004364 
	C244.443222,202.951065 249.883728,202.831207 255.321167,202.913132 
	C256.179138,202.926056 257.023346,203.851288 257.873932,204.354706 
	C257.077026,204.904266 256.241913,205.974808 255.489365,205.919632 
	C250.217590,205.533142 244.962830,204.914154 239.357513,203.922653 
	C239.012375,203.475754 239.003738,203.004364 239.003738,203.004364 
z"/>
<path fill="#0A6B75" opacity="1.000000" stroke="none" 
	d="
M183.992859,215.411301 
	C189.225525,209.949844 194.458191,204.488403 199.974304,198.907867 
	C200.386810,199.020294 200.515869,199.251831 200.956619,199.730255 
	C195.649689,205.815628 190.031097,211.654114 184.160233,217.369583 
	C183.936264,216.634811 183.964554,216.023056 183.992859,215.411301 
z"/>
<path fill="#15D0E4" opacity="1.000000" stroke="none" 
	d="
M185.408493,249.764771 
	C183.794266,250.809418 182.293304,251.818405 180.685486,252.035309 
	C180.241898,252.095169 178.860275,249.691010 179.040985,248.605927 
	C179.215866,247.555817 181.354980,245.795258 181.749588,246.005066 
	C183.192642,246.772385 184.267731,248.231644 185.408493,249.764771 
z"/>
<path fill="#15CCE0" opacity="1.000000" stroke="none" 
	d="
M123.090836,312.931183 
	C122.518944,314.807373 121.968575,316.537384 120.885483,317.816254 
	C120.602638,318.150208 118.050812,317.392944 117.633606,316.577728 
	C117.081543,315.499023 117.332886,312.762512 117.711784,312.669739 
	C119.351723,312.268250 121.163948,312.570404 123.090836,312.931183 
z"/>
<path fill="#15CCE0" opacity="1.000000" stroke="none" 
	d="
M57.815231,253.606628 
	C56.140919,254.574478 54.574287,255.539520 52.958904,255.629501 
	C52.446899,255.658035 51.164925,253.209091 51.400799,252.154617 
	C51.640614,251.082504 53.883762,249.382462 54.264656,249.609543 
	C55.695637,250.462662 56.724503,251.990295 57.815231,253.606628 
z"/>
<path fill="#15CCE0" opacity="1.000000" stroke="none" 
	d="
M119.763168,186.323303 
	C118.833817,188.032990 117.947670,189.662231 116.582626,190.576340 
	C116.158379,190.860428 113.825417,189.410614 113.481178,188.381607 
	C113.141739,187.366943 114.167419,184.818451 114.675621,184.796127 
	C116.304008,184.724548 117.970123,185.511459 119.763168,186.323303 
z"/>
<path fill="#15CCE0" opacity="1.000000" stroke="none" 
	d="
M440.995789,288.425446 
	C440.679993,287.632416 440.514618,287.109467 440.216736,286.342224 
	C440.763519,285.383575 441.399170,284.128815 442.131348,284.069702 
	C443.568481,283.953674 445.497192,284.055908 446.384216,284.924194 
	C447.049072,285.575012 446.401855,287.566193 446.338806,288.960602 
	C444.607941,288.872253 442.877075,288.783875 440.995789,288.425446 
z"/>
<path fill="#17DDF2" opacity="1.000000" stroke="none" 
	d="
M183.625214,215.574310 
	C183.964554,216.023056 183.936264,216.634811 184.046844,217.684418 
	C183.051743,219.547775 181.917755,220.973312 180.783752,222.398834 
	C179.790298,221.296585 178.008820,220.235764 177.948288,219.084473 
	C177.751434,215.340210 181.017471,216.169403 183.625214,215.574310 
z"/>
<path fill="#0C7883" opacity="1.000000" stroke="none" 
	d="
M238.550018,202.873505 
	C239.003738,203.004364 239.012375,203.475754 239.027985,203.710968 
	C227.943420,203.946182 216.843262,203.946182 205.743103,203.946182 
	C205.738297,203.545013 205.733505,203.143829 205.728714,202.742661 
	C216.517914,202.742661 227.307098,202.742661 238.550018,202.873505 
z"/>
<path fill="#15CCE0" opacity="1.000000" stroke="none" 
	d="
M110.403755,307.012268 
	C112.261360,307.007385 114.492249,307.111847 116.859940,307.544373 
	C114.923508,307.622162 112.850273,307.371887 110.403755,307.012268 
z"/>
<path fill="#15D0E4" opacity="1.000000" stroke="none" 
	d="
M125.708099,194.954254 
	C124.820702,195.190704 123.658096,195.318909 122.253983,195.239441 
	C123.152618,194.969833 124.292755,194.907913 125.708099,194.954254 
z"/>
<path fill="#0A6B75" opacity="1.000000" stroke="none" 
	d="
M414.328857,199.480072 
	C414.026398,199.154449 414.034760,198.933502 414.000732,198.383621 
	C414.762054,198.206085 415.565735,198.357498 416.730896,198.301697 
	C417.158661,198.500870 417.224945,198.907272 417.191742,199.610367 
	C416.274750,199.799622 415.457184,199.692184 414.328857,199.480072 
z"/>
<path fill="#074A52" opacity="1.000000" stroke="none" 
	d="
M253.123352,287.041321 
	C251.979340,286.544952 251.195007,286.060486 250.976242,285.245880 
	C251.922028,284.981140 252.302231,285.046509 252.682449,285.111877 
	C253.110565,285.503082 253.538696,285.894257 254.067719,286.559723 
	C253.940063,286.907104 253.711548,286.980164 253.123352,287.041321 
z"/>
<path fill="#15D0E4" opacity="1.000000" stroke="none" 
	d="
M130.742676,195.973907 
	C130.381134,196.071121 129.792130,196.047943 129.106033,195.824692 
	C129.511032,195.700928 130.013138,195.777222 130.742676,195.973907 
z"/>
<path fill="#15CCE0" opacity="1.000000" stroke="none" 
	d="
M106.226501,306.140808 
	C106.612427,306.051361 107.225937,306.101868 107.922134,306.377136 
	C107.487900,306.494873 106.971001,306.387817 106.226501,306.140808 
z"/>
<path fill="#074A52" opacity="1.000000" stroke="none" 
	d="
M360.458557,274.477478 
	C360.540009,274.421783 360.554840,274.649841 360.554840,274.649841 
	C360.554840,274.649841 360.377106,274.533203 360.458557,274.477478 
z"/>
<path fill="#074A52" opacity="1.000000" stroke="none" 
	d="
M361.959564,275.973846 
	C361.959564,275.973846 361.825104,276.321320 361.825104,276.321320 
	C361.825104,276.321320 361.834961,276.106659 361.913879,276.054260 
	C361.992798,276.001892 361.959564,275.973846 361.959564,275.973846 
z"/>
<path fill="#074A52" opacity="1.000000" stroke="none" 
	d="
M362.005859,276.019226 
	C362.018921,276.036560 362.187683,275.745636 362.187683,275.745636 
	C362.187683,275.745636 362.137726,275.936798 362.048645,275.955322 
	C361.959564,275.973846 361.992798,276.001892 362.005859,276.019226 
z"/>
<path fill="#010F11" opacity="1.000000" stroke="none" 
	d="
M166.231628,240.635773 
	C167.693253,242.450546 168.997726,243.905396 170.302200,245.360245 
	C175.607101,269.079926 157.671753,299.393982 125.524551,303.753662 
	C125.381104,300.977966 124.953171,299.614380 121.439064,299.692230 
	C95.574173,300.265106 76.581726,285.588409 70.268326,259.963440 
	C69.385658,258.840759 68.688736,258.400146 67.991814,257.959534 
	C67.266205,257.927826 66.540604,257.896118 65.454056,257.815857 
	C62.206650,250.784653 64.783722,244.130173 66.632286,237.577820 
	C72.895958,215.375916 88.008636,202.782990 109.476555,198.179428 
	C111.432762,199.807037 112.907875,201.034378 114.693596,202.139420 
	C131.645554,202.087967 146.277054,207.199158 156.442337,220.849762 
	C160.689560,226.553238 162.924591,233.755188 166.231628,240.635773 
M135.127441,281.107635 
	C135.277771,281.240509 135.428101,281.373383 135.346436,282.177490 
	C133.252563,286.310669 131.158691,290.443848 129.064819,294.577026 
	C129.482376,294.854340 129.899933,295.131622 130.317490,295.408936 
	C131.409119,294.172455 132.768082,293.082947 133.543381,291.672577 
	C136.103500,287.015472 138.274673,282.137909 140.961746,277.560181 
	C142.211914,275.430328 144.306274,273.795990 146.085022,272.715332 
	C143.207535,279.078522 140.330063,285.441711 137.452576,291.804901 
	C139.482147,291.130585 141.170456,289.909698 142.043610,288.257904 
	C149.014267,275.070923 155.869965,261.822418 162.638565,248.530518 
	C163.388000,247.058777 163.370178,245.196335 163.708191,243.515091 
	C163.244751,243.393707 162.781326,243.272308 162.317902,243.150909 
	C159.599274,248.415039 157.006042,253.750122 154.089752,258.902344 
	C153.149826,260.562866 151.359604,261.742096 149.984116,262.356995 
	C153.484344,254.855728 157.052963,247.385025 160.429337,239.828415 
	C161.137451,238.243607 161.138062,236.342667 161.464691,234.587402 
	C161.061432,234.509308 160.658157,234.431213 160.254898,234.353119 
	C157.751419,239.122925 155.247955,243.892731 152.388367,249.341034 
	C149.612167,240.545853 159.437820,235.740204 157.074402,227.847839 
	C154.954636,231.754547 152.834854,235.661240 150.422012,240.108063 
	C146.961334,232.912079 156.353317,228.794037 153.881149,221.185928 
	C151.411682,225.754211 149.496918,229.296341 147.060028,233.804382 
	C144.097931,226.960190 152.058594,223.277298 149.785629,216.556412 
	C147.324951,220.942154 145.425079,224.328354 143.525208,227.714554 
	C142.966614,227.617523 142.408035,227.520493 141.849457,227.423462 
	C140.319595,222.675537 147.263245,219.006042 145.114197,212.683762 
	C142.609238,217.165848 140.736847,220.516098 138.383667,224.726608 
	C135.167374,218.939865 142.334793,215.712555 140.161636,209.878372 
	C137.635559,214.128922 135.618073,217.523666 133.184784,221.618088 
	C129.819168,216.127411 137.243866,213.028763 134.738937,207.296082 
	C133.117493,210.160461 132.078278,212.252396 130.796143,214.182999 
	C129.703583,215.828140 128.331528,217.287659 127.083122,218.829285 
	C126.617332,218.463303 126.151550,218.097321 125.685760,217.731339 
	C127.284302,214.275986 128.882843,210.820648 130.481384,207.365295 
	C129.908539,207.041733 129.335678,206.718170 128.762817,206.394608 
	C127.521194,208.404327 126.337036,210.452621 125.021347,212.412628 
	C123.769348,214.277756 122.379951,216.050644 121.050964,217.864090 
	C120.547073,217.505875 120.043182,217.147659 119.539291,216.789459 
	C121.171509,213.241989 122.803734,209.694519 125.030136,204.855667 
	C118.018562,207.707611 119.502998,216.578812 111.963493,218.256653 
	C114.388191,213.378799 116.268959,209.595184 118.149727,205.811584 
	C117.565941,205.446472 116.982147,205.081360 116.398361,204.716248 
	C114.781418,207.417496 113.353012,210.257751 111.493454,212.780136 
	C109.706306,215.204315 109.916885,219.785004 104.695236,219.465988 
	C106.968445,214.885895 109.054550,210.682770 111.140663,206.479645 
	C102.817268,210.683624 103.696251,222.274353 94.258118,226.466873 
	C97.547745,220.081711 100.432846,214.481750 103.317947,208.881790 
	C102.949051,208.607605 102.580154,208.333435 102.211258,208.059265 
	C101.164696,209.079803 99.768707,209.917526 99.124596,211.148636 
	C90.949104,226.774429 82.851845,242.441559 74.841049,258.152405 
	C74.169724,259.469025 74.265190,261.176575 74.004410,262.702515 
	C74.400322,262.786194 74.796234,262.869843 75.192146,262.953522 
	C77.739845,258.268158 80.287537,253.582794 82.835236,248.897430 
	C84.969292,257.409790 75.779457,262.652679 77.745216,270.963226 
	C80.037949,266.687714 82.330688,262.412201 85.172691,257.112427 
	C87.523170,265.382690 79.062653,269.753906 81.287270,276.899750 
	C83.277008,273.219513 85.266754,269.539307 87.833076,264.792633 
	C90.834702,271.917847 82.267242,275.910980 84.724007,282.932953 
	C87.229378,278.432465 89.128876,275.020325 91.028374,271.608185 
	C91.662468,271.808258 92.296562,272.008301 92.930656,272.208374 
	C91.306580,276.676361 89.682503,281.144348 88.058418,285.612335 
	C88.598000,285.771667 89.137581,285.931000 89.677162,286.090332 
	C91.609001,282.759674 93.540840,279.429047 95.472672,276.098389 
	C96.120354,276.325317 96.768036,276.552246 97.415718,276.779175 
	C95.827057,280.809113 94.238396,284.839020 92.649734,288.868958 
	C93.141518,289.152557 93.633293,289.436127 94.125076,289.719727 
	C96.211273,286.340088 98.297462,282.960449 100.969101,278.632416 
	C103.496094,284.575653 97.377403,287.482452 98.725395,292.229095 
	C100.451370,290.744934 101.490669,288.838470 102.754478,287.094757 
	C103.985771,285.395874 103.983246,281.756714 108.104393,283.137970 
	C106.257294,286.995178 104.654793,290.341614 103.052292,293.688019 
	C103.583031,294.038116 104.113762,294.388214 104.644493,294.738281 
	C105.905510,292.843658 107.065048,290.870392 108.455734,289.076263 
	C109.880745,287.237885 109.384872,282.980164 114.051437,284.530579 
	C112.246849,288.316895 110.540764,291.896545 108.834679,295.476196 
	C114.883110,294.034119 113.761383,286.032196 120.870728,284.203186 
	C118.553818,288.919983 116.781128,292.528839 115.008446,296.137665 
	C121.855644,294.725372 120.169022,285.148987 127.855530,283.473175 
	C125.574371,288.220123 123.694122,292.132751 121.813873,296.045410 
	C122.384193,296.368988 122.954506,296.692566 123.524826,297.016113 
	C125.194710,294.229340 126.736832,291.355042 128.569778,288.680023 
	C130.463486,285.916351 132.639832,283.346344 135.127441,281.107635 
M93.959503,214.269257 
	C93.689278,213.860321 93.419060,213.451401 93.148849,213.042480 
	C91.915123,214.320480 90.310753,215.400955 89.507446,216.908340 
	C84.036026,227.175278 78.675430,237.502930 73.437622,247.890930 
	C72.642433,249.468002 72.669937,251.459885 72.316925,253.259903 
	C72.721031,253.376785 73.125137,253.493668 73.529251,253.610550 
	C80.230782,240.725296 86.932320,227.840057 93.959503,214.269257 
M161.044693,258.434052 
	C156.422226,267.357544 151.799759,276.281036 147.177292,285.204529 
	C147.599258,285.427094 148.021225,285.649658 148.443207,285.872223 
	C155.126328,278.215820 158.752365,268.761566 163.011795,259.695038 
	C163.161667,259.376038 161.977814,258.430481 161.044693,258.434052 
z"/>
<path fill="#15D0E4" opacity="1.000000" stroke="none" 
	d="
M68.069618,258.267456 
	C68.688736,258.400146 69.385658,258.840759 70.072365,259.645966 
	C69.423904,259.532166 68.785660,259.053772 68.069618,258.267456 
z"/>
<path fill="#16BDE3" opacity="1.000000" stroke="none" 
	d="
M244.999954,283.044952 
	C243.216782,284.026978 241.513062,285.603424 239.632248,285.854797 
	C236.643921,286.254181 233.537384,285.769012 230.194901,285.900696 
	C225.439026,283.432373 220.969101,280.721375 216.499176,278.010376 
	C216.596771,277.587280 216.694382,277.164185 216.791992,276.741089 
	C224.936340,278.234833 233.639587,273.939545 241.705017,280.015869 
	C242.073425,279.964722 242.022888,279.955292 242.040344,280.278015 
	C243.038513,281.415436 244.019241,282.230194 244.999954,283.044952 
z"/>
<path fill="#16BDE3" opacity="1.000000" stroke="none" 
	d="
M221.748459,283.759338 
	C215.749374,286.948364 209.532532,287.357391 203.806091,283.130890 
	C202.363205,282.065979 201.912766,279.656403 200.999481,277.476685 
	C209.160049,274.992340 215.387604,279.111176 221.748459,283.759338 
z"/>
<path fill="#16BDE3" opacity="1.000000" stroke="none" 
	d="
M253.137238,285.087219 
	C252.302231,285.046509 251.922028,284.981140 251.268036,285.012329 
	C250.994278,285.108856 250.999924,285.068024 250.961365,284.739258 
	C249.942566,283.625275 248.962341,282.840027 248.151901,281.762909 
	C249.877182,280.013062 251.432663,278.555084 252.988159,277.097107 
	C254.385757,277.048462 255.783340,276.999786 257.595612,277.022095 
	C259.964722,278.493011 261.995728,279.801056 263.837616,281.336090 
	C264.624481,281.991882 265.016937,283.120972 265.588593,284.034973 
	C264.542297,284.670715 263.495636,285.841064 262.449768,285.840363 
	C259.497009,285.838348 256.544586,285.355774 253.137238,285.087219 
z"/>
<path fill="#16CCE9" opacity="1.000000" stroke="none" 
	d="
M252.532471,277.038666 
	C251.432663,278.555084 249.877182,280.013062 247.797211,281.659119 
	C245.522797,281.216522 243.772842,280.585907 242.022888,279.955292 
	C242.022888,279.955292 242.073425,279.964722 242.088745,279.943756 
	C241.762909,279.051971 241.421753,278.181152 240.951279,276.980225 
	C244.734802,276.980225 248.405792,276.980225 252.532471,277.038666 
z"/>
<path fill="#074A52" opacity="1.000000" stroke="none" 
	d="
M242.040344,280.278015 
	C243.772842,280.585907 245.522797,281.216522 247.627441,281.950989 
	C248.962341,282.840027 249.942566,283.625275 250.950745,284.728333 
	C249.223709,284.445862 247.468704,283.845520 245.356842,283.145081 
	C244.019241,282.230194 243.038513,281.415436 242.040344,280.278015 
z"/>
<path fill="#15C3DD" opacity="1.000000" stroke="none" 
	d="
M146.017944,271.937012 
	C144.306274,273.795990 142.211914,275.430328 140.961746,277.560181 
	C138.274673,282.137909 136.103500,287.015472 133.543381,291.672577 
	C132.768082,293.082947 131.409119,294.172455 130.317490,295.408936 
	C129.899933,295.131622 129.482376,294.854340 129.064819,294.577026 
	C131.158691,290.443848 133.252563,286.310669 135.625214,281.611053 
	C135.855728,280.782684 135.807434,280.520782 135.759140,280.258850 
	C135.403595,280.403076 135.048050,280.547333 134.692505,280.691589 
	C132.639832,283.346344 130.463486,285.916351 128.569778,288.680023 
	C126.736832,291.355042 125.194710,294.229340 123.524826,297.016113 
	C122.954506,296.692566 122.384193,296.368988 121.813873,296.045410 
	C123.694122,292.132751 125.574371,288.220123 127.855530,283.473175 
	C120.169022,285.148987 121.855644,294.725372 115.008446,296.137665 
	C116.781128,292.528839 118.553818,288.919983 120.870728,284.203186 
	C113.761383,286.032196 114.883110,294.034119 108.834679,295.476196 
	C110.540764,291.896545 112.246849,288.316895 114.051437,284.530579 
	C109.384872,282.980164 109.880745,287.237885 108.455734,289.076263 
	C107.065048,290.870392 105.905510,292.843658 104.644493,294.738281 
	C104.113762,294.388214 103.583031,294.038116 103.052292,293.688019 
	C104.654793,290.341614 106.257294,286.995178 108.104393,283.137970 
	C103.983246,281.756714 103.985771,285.395874 102.754478,287.094757 
	C101.490669,288.838470 100.451370,290.744934 98.725395,292.229095 
	C97.377403,287.482452 103.496094,284.575653 100.969101,278.632416 
	C98.297462,282.960449 96.211273,286.340088 94.125076,289.719727 
	C93.633293,289.436127 93.141518,289.152557 92.649734,288.868958 
	C94.238396,284.839020 95.827057,280.809113 97.415718,276.779175 
	C96.768036,276.552246 96.120354,276.325317 95.472672,276.098389 
	C93.540840,279.429047 91.609001,282.759674 89.677162,286.090332 
	C89.137581,285.931000 88.598000,285.771667 88.058418,285.612335 
	C89.682503,281.144348 91.306580,276.676361 92.930656,272.208374 
	C92.296562,272.008301 91.662468,271.808258 91.028374,271.608185 
	C89.128876,275.020325 87.229378,278.432465 84.724007,282.932953 
	C82.267242,275.910980 90.834702,271.917847 87.833076,264.792633 
	C85.266754,269.539307 83.277008,273.219513 81.287270,276.899750 
	C79.062653,269.753906 87.523170,265.382690 85.172691,257.112427 
	C82.330688,262.412201 80.037949,266.687714 77.745216,270.963226 
	C75.779457,262.652679 84.969292,257.409790 82.835236,248.897430 
	C80.287537,253.582794 77.739845,258.268158 75.192146,262.953522 
	C74.796234,262.869843 74.400322,262.786194 74.004410,262.702515 
	C74.265190,261.176575 74.169724,259.469025 74.841049,258.152405 
	C82.851845,242.441559 90.949104,226.774429 99.124596,211.148636 
	C99.768707,209.917526 101.164696,209.079803 102.211258,208.059265 
	C102.580154,208.333435 102.949051,208.607605 103.317947,208.881790 
	C100.432846,214.481750 97.547745,220.081711 94.258118,226.466873 
	C103.696251,222.274353 102.817268,210.683624 111.140663,206.479645 
	C109.054550,210.682770 106.968445,214.885895 104.695236,219.465988 
	C109.916885,219.785004 109.706306,215.204315 111.493454,212.780136 
	C113.353012,210.257751 114.781418,207.417496 116.398361,204.716248 
	C116.982147,205.081360 117.565941,205.446472 118.149727,205.811584 
	C116.268959,209.595184 114.388191,213.378799 111.963493,218.256653 
	C119.502998,216.578812 118.018562,207.707611 125.030136,204.855667 
	C122.803734,209.694519 121.171509,213.241989 119.539291,216.789459 
	C120.043182,217.147659 120.547073,217.505875 121.050964,217.864090 
	C122.379951,216.050644 123.769348,214.277756 125.021347,212.412628 
	C126.337036,210.452621 127.521194,208.404327 128.762817,206.394608 
	C129.335678,206.718170 129.908539,207.041733 130.481384,207.365295 
	C128.882843,210.820648 127.284302,214.275986 125.685760,217.731339 
	C126.151550,218.097321 126.617332,218.463303 127.083122,218.829285 
	C128.331528,217.287659 129.703583,215.828140 130.796143,214.182999 
	C132.078278,212.252396 133.117493,210.160461 134.738937,207.296082 
	C137.243866,213.028763 129.819168,216.127411 133.184784,221.618088 
	C135.618073,217.523666 137.635559,214.128922 140.161636,209.878372 
	C142.334793,215.712555 135.167374,218.939865 138.383667,224.726608 
	C140.736847,220.516098 142.609238,217.165848 145.114197,212.683762 
	C147.263245,219.006042 140.319595,222.675537 141.849457,227.423462 
	C142.408035,227.520493 142.966614,227.617523 143.525208,227.714554 
	C145.425079,224.328354 147.324951,220.942154 149.785629,216.556412 
	C152.058594,223.277298 144.097931,226.960190 147.060028,233.804382 
	C149.496918,229.296341 151.411682,225.754211 153.881149,221.185928 
	C156.353317,228.794037 146.961334,232.912079 150.422012,240.108063 
	C152.834854,235.661240 154.954636,231.754547 157.074402,227.847839 
	C159.437820,235.740204 149.612167,240.545853 152.388367,249.341034 
	C155.247955,243.892731 157.751419,239.122925 160.254898,234.353119 
	C160.658157,234.431213 161.061432,234.509308 161.464691,234.587402 
	C161.138062,236.342667 161.137451,238.243607 160.429337,239.828415 
	C157.052963,247.385025 153.484344,254.855728 149.946991,263.102844 
	C148.612564,266.544830 147.315262,269.240906 146.017944,271.937012 
M98.880341,271.653290 
	C99.770851,272.403137 100.619385,273.210663 101.558342,273.893951 
	C111.093208,280.832611 123.850914,281.154419 133.934570,274.734344 
	C143.044586,268.934174 148.386093,257.090729 146.556061,246.749435 
	C144.492767,235.090088 135.755768,225.752213 124.697655,223.387726 
	C112.333374,220.743942 100.219025,225.980576 93.861298,236.717255 
	C87.288887,247.816483 88.933006,260.453339 98.880341,271.653290 
z"/>
<path fill="#13C2D4" opacity="1.000000" stroke="none" 
	d="
M146.051483,272.326172 
	C147.315262,269.240906 148.612564,266.544830 149.934113,263.495117 
	C151.359604,261.742096 153.149826,260.562866 154.089752,258.902344 
	C157.006042,253.750122 159.599274,248.415039 162.317902,243.150909 
	C162.781326,243.272308 163.244751,243.393707 163.708191,243.515091 
	C163.370178,245.196335 163.388000,247.058777 162.638565,248.530518 
	C155.869965,261.822418 149.014267,275.070923 142.043610,288.257904 
	C141.170456,289.909698 139.482147,291.130585 137.452576,291.804901 
	C140.330063,285.441711 143.207535,279.078522 146.051483,272.326172 
z"/>
<path fill="#13C2D4" opacity="1.000000" stroke="none" 
	d="
M93.796677,214.612030 
	C86.932320,227.840057 80.230782,240.725296 73.529251,253.610550 
	C73.125137,253.493668 72.721031,253.376785 72.316925,253.259903 
	C72.669937,251.459885 72.642433,249.468002 73.437622,247.890930 
	C78.675430,237.502930 84.036026,227.175278 89.507446,216.908340 
	C90.310753,215.400955 91.915123,214.320480 93.148849,213.042480 
	C93.419060,213.451401 93.689278,213.860321 93.796677,214.612030 
z"/>
<path fill="#13C2D4" opacity="1.000000" stroke="none" 
	d="
M161.230133,258.105499 
	C161.977814,258.430481 163.161667,259.376038 163.011795,259.695038 
	C158.752365,268.761566 155.126328,278.215820 148.443207,285.872223 
	C148.021225,285.649658 147.599258,285.427094 147.177292,285.204529 
	C151.799759,276.281036 156.422226,267.357544 161.230133,258.105499 
z"/>
<path fill="#000202" opacity="1.000000" stroke="none" 
	d="
M98.611862,271.410065 
	C88.933006,260.453339 87.288887,247.816483 93.861298,236.717255 
	C100.219025,225.980576 112.333374,220.743942 124.697655,223.387726 
	C135.755768,225.752213 144.492767,235.090088 146.556061,246.749435 
	C148.386093,257.090729 143.044586,268.934174 133.934570,274.734344 
	C123.850914,281.154419 111.093208,280.832611 101.558342,273.893951 
	C100.619385,273.210663 99.770851,272.403137 98.611862,271.410065 
z"/>
<path fill="#010F11" opacity="1.000000" stroke="none" 
	d="
M134.909973,280.899597 
	C135.048050,280.547333 135.403595,280.403076 135.759140,280.258850 
	C135.807434,280.520782 135.855728,280.782684 135.741211,281.275421 
	C135.428101,281.373383 135.277771,281.240509 134.909973,280.899597 
z"/>
</svg>